<svg width="309" height="387" viewBox="0 0 309 387" fill="none" xmlns="http://www.w3.org/2000/svg">
<ellipse cx="159.369" cy="54.4184" rx="48.5878" ry="54.4184" fill="#2E0927"/>
<ellipse cx="153.053" cy="332.341" rx="50.0455" ry="54.4184" fill="#2E0927"/>
<path d="M51.9908 232.736C35.0489 240.532 2.6034 266.597 2.6034 266.597C2.6034 266.597 -2.30565 289.493 14.6917 309.905C31.6891 330.318 49.3951 331.598 70.4542 326.024C92.1179 320.291 99.121 289.584 99.121 289.584C99.121 289.584 106.895 274.521 126.852 267.559C146.81 260.597 143.388 261.926 151.992 262.266C159.51 262.563 169.973 264.295 177.132 266.597C187.359 269.885 192.422 273.064 194.839 273.064C214.551 273.064 223.597 269.513 235.167 253.628C249.187 234.38 227.772 219.958 220.591 205.041C211.031 185.184 221.518 201.414 199.698 205.041C187.109 207.133 187.655 168.431 172.298 184.792C156.941 201.154 165.686 194.837 153.926 215.589C142.166 236.341 136.531 231.866 122.501 236.281C110.945 239.917 92.8046 238.903 89.4034 237.595C65.5954 228.438 73.1506 222.999 51.9908 232.736Z" fill="#2E0927"/>
<ellipse cx="50.0455" cy="277.922" rx="50.0455" ry="54.4184" fill="#2E0927"/>
<ellipse cx="207.471" cy="220.589" rx="50.0455" ry="54.4184" fill="#2E0927"/>
<path d="M102.522 120.984C85.5802 128.78 53.1346 154.845 53.1346 154.845C53.1346 154.845 48.2256 177.741 65.223 198.153C82.2204 218.566 99.9263 219.846 120.985 214.272C142.649 208.539 149.652 177.832 149.652 177.832C149.652 177.832 157.426 162.769 177.384 155.807C197.341 148.845 193.919 150.174 202.523 150.514C210.041 150.811 220.504 152.543 227.663 154.845C237.89 158.133 242.953 161.312 245.37 161.312C265.082 161.312 274.128 157.761 285.698 141.876C299.718 122.628 278.303 108.206 271.122 93.2887C261.562 73.4317 272.049 89.6617 250.229 93.2888C237.64 95.3814 238.186 56.679 222.829 73.0403C207.472 89.4016 216.218 83.0852 204.457 103.837C192.697 124.589 187.063 120.114 173.033 124.529C161.476 128.165 143.336 127.151 139.935 125.842C116.127 116.686 123.682 111.247 102.522 120.984Z" fill="#2E0927"/>
<ellipse cx="100.577" cy="166.17" rx="50.0455" ry="54.4184" fill="#2E0927"/>
<ellipse cx="258.003" cy="108.837" rx="50.0455" ry="54.4184" fill="#2E0927"/>
</svg>
